<svg width="400" height="400" viewBox="0 0 400 400" fill="none" xmlns="http://www.w3.org/2000/svg">
<rect width="400" height="400" rx="64" fill="#5742D8"/>
<path d="M69 272V128H108.598V241.197H179.021V272H69Z" fill="white"/>
<path d="M200.428 272V128H266.09C279.456 128 290.901 130.17 300.425 134.511C310.115 138.685 317.634 144.696 322.98 152.543C328.327 160.39 331 169.906 331 181.092C331 191.944 328.327 201.377 322.98 209.391C317.634 217.405 310.115 223.499 300.425 227.673C290.901 231.847 279.456 233.934 266.09 233.934H222.232L240.026 216.654V272H200.428ZM240.026 221.162L225.49 203.381H263.333C272.522 203.381 279.456 201.461 284.134 197.621C288.813 193.614 291.152 188.104 291.152 181.092C291.152 173.913 288.813 168.403 284.134 164.563C279.456 160.723 272.522 158.803 263.333 158.803H225.49L240.026 141.023V221.162Z" fill="white"/>
</svg>
